Coordinates
version=1
nRows=43
nColumns=12
inDegrees=yes

Units are S.I. units (second, meters, Newtons, ...)
Angles are in degrees

endheader
time	SC_y	SC_z	SC_x	AC_y	AC_z	AC_x	GH_y	GH_z	GH_yy	EL_x	PS_y
       0.0              -19.97          19.44           47.6          30.27          8.588         -11.08          62.94          20.79          44.42          81.87          91.34
   0.02323              -19.97          19.44           47.6          30.27          8.584         -11.08          62.95          20.79           44.4          81.87          91.35
   0.04646              -19.97          19.44           47.6          30.27          8.581         -11.08          62.96          20.78          44.37          81.87          91.36
    0.0697              -19.97          19.44           47.6          30.27          8.578         -11.08          62.97          20.78          44.34          81.87          91.37
   0.09293              -19.97          19.44           47.6          30.27          8.574         -11.08          62.99          20.77          44.31          81.88          91.38
    0.1162              -19.97          19.44          47.61          30.27           8.57         -11.08           63.0          20.76          44.27          81.88          91.39
    0.1394              -19.97          19.44          47.61          30.28          8.565         -11.08          63.02          20.75          44.24          81.88           91.4
    0.1626              -19.97          19.44          47.61          30.28          8.561         -11.09          63.04          20.75           44.2          81.89          91.42
    0.1859              -19.96          19.43          47.61          30.28          8.556         -11.09          63.05          20.74          44.15          81.89          91.43
    0.2091              -19.96          19.43          47.61          30.28          8.551         -11.09          63.07          20.73          44.11          81.89          91.45
    0.2323              -19.96          19.43          47.61          30.28          8.545         -11.09           63.1          20.72          44.06           81.9          91.46
    0.2556              -19.96          19.43          47.62          30.28          8.539         -11.09          63.12          20.71          44.01           81.9          91.48
    0.2788              -19.96          19.43          47.62          30.28          8.532         -11.09          63.14          20.69          43.95          81.91           91.5
     0.302              -19.96          19.43          47.62          30.28          8.525         -11.09          63.17          20.68          43.89          81.91          91.52
    0.3253              -19.95          19.42          47.62          30.28          8.517          -11.1           63.2          20.67          43.82          81.92          91.54
    0.3485              -19.95          19.42          47.63          30.29          8.509          -11.1          63.23          20.65          43.75          81.93          91.56
    0.3717              -19.95          19.42          47.63          30.29            8.5          -11.1          63.26          20.64          43.68          81.93          91.59
    0.3949              -19.95          19.42          47.63          30.29           8.49          -11.1           63.3          20.62          43.59          81.94          91.61
    0.4182              -19.94          19.41          47.64          30.29          8.479         -11.11          63.34           20.6           43.5          81.95          91.64
    0.4414              -19.94          19.41          47.64          30.29          8.467         -11.11          63.39          20.58           43.4          81.96          91.68
    0.4646              -19.94          19.41          47.65           30.3          8.454         -11.11          63.44          20.55          43.29          81.97          91.71
    0.4879              -19.93           19.4          47.65           30.3           8.44         -11.12          63.49          20.53          43.16          81.98          91.75
    0.5111              -19.93           19.4          47.66           30.3          8.424         -11.12          63.55           20.5          43.03          81.99           91.8
    0.5343              -19.92          19.39          47.66          30.31          8.407         -11.12          63.61          20.47          42.88           82.0          91.84
    0.5576              -19.92          19.39          47.67          30.31          8.387         -11.13          63.69          20.43          42.71          82.02           91.9
    0.5808              -19.91          19.38          47.68          30.31          8.366         -11.14          63.77          20.39          42.53          82.04          91.96
     0.604              -19.91          19.38          47.69          30.32          8.341         -11.14          63.86          20.35          42.32          82.06          92.03
    0.6273               -19.9          19.37           47.7          30.32          8.314         -11.15          63.96           20.3          42.09          82.08           92.1
    0.6505              -19.89          19.36          47.71          30.33          8.283         -11.16          64.08          20.24          41.82           82.1          92.19
    0.6737              -19.88          19.35          47.72          30.34          8.248         -11.17          64.21          20.18          41.52          82.13          92.28
     0.697              -19.87          19.34          47.74          30.34          8.208         -11.18          64.36          20.11          41.18          82.16          92.39
    0.7202              -19.86          19.33          47.75          30.35          8.162         -11.19          64.53          20.02          40.79          82.19          92.52
    0.7434              -19.84          19.31          47.77          30.36          8.109          -11.2          64.73          19.93          40.34          82.23          92.67
    0.7667              -19.83           19.3          47.79          30.38          8.047         -11.22          64.96          19.82          39.81          82.28          92.84
    0.7899              -19.81          19.28          47.82          30.39          7.975         -11.24          65.23          19.69          39.19          82.34          93.04
    0.8131              -19.78          19.25          47.85          30.41           7.89         -11.26          65.55          19.53          38.47           82.4          93.27
    0.8364              -19.76          19.22          47.89          30.43          7.789         -11.28          65.93          19.35           37.6          82.48          93.55
    0.8596              -19.72          19.19          47.93          30.45          7.668         -11.31          66.39          19.13          36.57          82.57          93.89
    0.8828              -19.68          19.15          47.98          30.48          7.522         -11.35          66.94          18.86          35.32          82.68          94.29
    0.9061              -19.64           19.1          48.05          30.51          7.343          -11.4          67.61          18.54          33.79          82.82          94.79
    0.9293              -19.58          19.04          48.12          30.56          7.122         -11.45          68.44          18.14           31.9          82.99           95.4
    0.9525               -19.5          18.97          48.22          30.61          6.846         -11.53          69.47          17.64          29.54           83.2          96.16
    0.9758              -19.41          18.87          48.35          30.68          6.499         -11.61          70.78          17.01          26.58          83.47          97.13
